name GIL03_static.mot
datacolumns 141
datarows 4
range 0.00833333 0.03333334
endheader

                time	           pelvis_tx	           pelvis_ty	           pelvis_tz	         pelvis_tilt	         pelvis_list	     pelvis_rotation	       hip_flexion_r	     hip_adduction_r	      hip_rotation_r	        knee_angle_r	       ankle_angle_r	    subtalar_angle_r	         mtp_angle_r	       hip_flexion_l	     hip_adduction_l	      hip_rotation_l	        knee_angle_l	       ankle_angle_l	    subtalar_angle_l	         mtp_angle_l	    lumbar_extension	      lumbar_bending	     lumbar_rotation	    ground_marker_px	    ground_marker_py	    ground_marker_pz	    ground_marker_px	    ground_marker_py	    ground_marker_pz	    ground_marker_px	    ground_marker_py	    ground_marker_pz	    ground_marker_px	    ground_marker_py	    ground_marker_pz	    ground_marker_px	    ground_marker_py	    ground_marker_pz	    ground_marker_px	    ground_marker_py	    ground_marker_pz	    ground_marker_px	    ground_marker_py	    ground_marker_pz	    ground_marker_px	    ground_marker_py	    ground_marker_pz	    ground_marker_px	    ground_marker_py	    ground_marker_pz	    ground_marker_px	    ground_marker_py	    ground_marker_pz	    ground_marker_px	    ground_marker_py	    ground_marker_pz	    ground_marker_px	    ground_marker_py	    ground_marker_pz	    ground_marker_px	    ground_marker_py	    ground_marker_pz	    ground_marker_px	    ground_marker_py	    ground_marker_pz	    ground_marker_px	    ground_marker_py	    ground_marker_pz	    ground_marker_px	    ground_marker_py	    ground_marker_pz	    ground_marker_px	    ground_marker_py	    ground_marker_pz	    ground_marker_px	    ground_marker_py	    ground_marker_pz	    ground_marker_px	    ground_marker_py	    ground_marker_pz	    ground_marker_px	    ground_marker_py	    ground_marker_pz	    ground_marker_px	    ground_marker_py	    ground_marker_pz	    ground_marker_px	    ground_marker_py	    ground_marker_pz	    ground_marker_px	    ground_marker_py	    ground_marker_pz	    ground_marker_px	    ground_marker_py	    ground_marker_pz	    ground_marker_px	    ground_marker_py	    ground_marker_pz	    ground_marker_px	    ground_marker_py	    ground_marker_pz	    ground_marker_px	    ground_marker_py	    ground_marker_pz	    ground_marker_px	    ground_marker_py	    ground_marker_pz	    ground_marker_px	    ground_marker_py	    ground_marker_pz	    ground_marker_px	    ground_marker_py	    ground_marker_pz	    ground_marker_px	    ground_marker_py	    ground_marker_pz	    ground_marker_px	    ground_marker_py	    ground_marker_pz	    ground_marker_px	    ground_marker_py	    ground_marker_pz	    ground_marker_px	    ground_marker_py	    ground_marker_pz	    ground_marker_px	    ground_marker_py	    ground_marker_pz	    ground_marker_px	    ground_marker_py	    ground_marker_pz	    ground_marker_px	    ground_marker_py	    ground_marker_pz	    ground_marker_px	    ground_marker_py	    ground_marker_pz	    ground_marker_px	    ground_marker_py	    ground_marker_pz	
          0.00833333	          1.52675486	          0.89991879	         -0.27162692	        -10.56971931	         -4.14241648	          6.30444288	          6.82848930	         -1.63922286	          6.94299221	          1.43385005	          2.56219292	          0.00000000	          0.00000000	         10.21426010	         -5.50926065	         13.20817184	         -0.95171010	          1.62656379	          0.00000000	          0.00000000	          1.03786159	         -1.76142704	         -1.56349945	          1.45175672	          0.83482587	         -0.26028502	          1.46424508	          0.83581275	         -0.20290059	          1.43926823	          0.83383906	         -0.31766942	          1.44028771	          0.45923010	         -0.17970002	          1.43154919	          0.46512753	         -0.34348452	          1.42055964	          0.06350815	         -0.17421517	          1.41490769	          0.06596089	         -0.35548264	          1.52675486	          0.89991879	         -0.27162692	          1.53988576	          0.90237820	         -0.17068478	          1.51362407	          0.89745933	         -0.37256905	          1.38155496	          0.96327102	         -0.22892967	          1.37639403	          0.96180105	         -0.28388205	          1.45400822	          0.46163520	         -0.12649320	          1.43713021	          0.46879771	         -0.39757365	          1.42066205	          0.45225397	         -0.23057657	          1.41932130	          0.45236295	         -0.29212570	          1.41021669	          0.06453760	         -0.13714482	          1.40872455	          0.06736011	         -0.39345708	          1.44241154	          0.07654191	         -0.20187414	          1.43857408	          0.07585401	         -0.33313930	          1.37342966	          0.04292979	         -0.16879649	          1.36950922	          0.04821117	         -0.34303239	          1.51580513	          1.29691970	         -0.28973904	          1.58426774	          1.13565576	         -0.28641248	          1.43334246	          1.34745014	         -0.27455640	          1.53696871	          1.29052448	         -0.23098823	          1.52519631	          1.28404617	         -0.34013873	          1.53412092	          0.04099706	         -0.12698624	          1.53232050	          0.03895590	         -0.40715185	          1.58670986	          0.61800838	         -0.20060019	          1.56651533	          0.62264210	         -0.32588428	          1.52010286	          0.67509687	         -0.15171471	          1.49693799	          0.67190492	         -0.38066784	          1.50475788	          0.59008175	         -0.14619148	          1.49243259	          0.58358657	         -0.37781456	          1.40928614	          0.18679556	         -0.06727418	          1.36020172	          0.18515590	         -0.44398305	          1.41413414	          0.19288582	         -0.10881696	          1.38095069	          0.18951973	         -0.40576899	
          0.01666667	          1.52664292	          0.89998651	         -0.27151996	        -10.55103683	         -4.16645479	          6.28547859	          6.82315063	         -1.59624529	          6.96659184	          1.42590487	          2.56177807	          0.00000000	          0.00000000	         10.20204735	         -5.55543900	         13.17538929	         -0.94237369	          1.61338508	          0.00000000	          0.00000000	          1.00685382	         -1.71369338	         -1.54633546	          1.45166576	          0.83487326	         -0.26015538	          1.46414566	          0.83589399	         -0.20276967	          1.43918586	          0.83385253	         -0.31754106	          1.44024098	          0.45924115	         -0.17965145	          1.43148351	          0.46512917	         -0.34345368	          1.42052567	          0.06354271	         -0.17420931	          1.41492581	          0.06597283	         -0.35548064	          1.52664292	          0.89998651	         -0.27151996	          1.53976786	          0.90250421	         -0.17050432	          1.51351798	          0.89746886	         -0.37253562	          1.38151395	          0.96327287	         -0.22888097	          1.37628591	          0.96179599	         -0.28382075	          1.45397234	          0.46163526	         -0.12644696	          1.43704212	          0.46881437	         -0.39754409	          1.42056513	          0.45225310	         -0.23052116	          1.42000544	          0.45216939	         -0.29216570	          1.41019034	          0.06456753	         -0.13713665	          1.40872693	          0.06737410	         -0.39345250	          1.44243503	          0.07660033	         -0.20184734	          1.43864512	          0.07605016	         -0.33315057	          1.37351000	          0.04292131	         -0.16880581	          1.36960232	          0.04815245	         -0.34305581	          1.51575351	          1.29692221	         -0.28968877	          1.58416593	          1.13563609	         -0.28640720	          1.43327260	          1.34749496	         -0.27448851	          1.53691590	          1.29050457	         -0.23093334	          1.52513993	          1.28405941	         -0.34009844	          1.53409600	          0.04102246	         -0.12698463	          1.53231132	          0.03896185	         -0.40714467	          1.58666146	          0.61805081	         -0.20060919	          1.56643677	          0.62265831	         -0.32590345	          1.52002382	          0.67512012	         -0.15172832	          1.49681079	          0.67193419	         -0.38062742	          1.50466728	          0.59009397	         -0.14617628	          1.49264944	          0.58378267	         -0.37780234	          1.40928459	          0.18679689	         -0.06725937	          1.36028409	          0.18520583	         -0.44404772	          1.41411734	          0.19291078	         -0.10878246	          1.38093424	          0.18956806	         -0.40575123	
          0.02500000	          1.52656257	          0.89999348	         -0.27148801	        -10.54678154	         -4.17338133	          6.29841566	          6.82334518	         -1.59244263	          6.95778990	          1.42513716	          2.56087995	          0.00000000	          0.00000000	         10.20495987	         -5.55919075	         13.15588284	         -0.93699992	          1.59941816	          0.00000000	          0.00000000	          1.00247371	         -1.71186101	         -1.55586576	          1.45159221	          0.83487612	         -0.26010272	          1.46408653	          0.83589906	         -0.20272021	          1.43909776	          0.83385319	         -0.31748521	          1.44020724	          0.45924103	         -0.17961122	          1.43142581	          0.46513799	         -0.34341234	          1.42050731	          0.06356288	         -0.17420074	          1.41495085	          0.06598103	         -0.35547966	          1.52656257	          0.89999348	         -0.27148801	          1.53971267	          0.90251440	         -0.17047849	          1.51341248	          0.89747256	         -0.37249753	          1.38147247	          0.96326298	         -0.22882955	          1.37619078	          0.96179128	         -0.28376672	          1.45394373	          0.46163434	         -0.12640798	          1.43695164	          0.46882674	         -0.39750585	          1.42043972	          0.45228606	         -0.23048979	          1.42003798	          0.45213622	         -0.29212317	          1.41017556	          0.06458422	         -0.13712704	          1.40872967	          0.06738566	         -0.39344773	          1.44245386	          0.07661283	         -0.20182614	          1.43873060	          0.07621829	         -0.33316070	          1.37350094	          0.04292564	         -0.16878992	          1.36974478	          0.04805949	         -0.34308764	          1.51569295	          1.29691744	         -0.28963730	          1.58410406	          1.13563085	         -0.28635660	          1.43317544	          1.34751475	         -0.27443102	          1.53686070	          1.29050171	         -0.23087817	          1.52507448	          1.28405285	         -0.34005266	          1.53404343	          0.04104886	         -0.12697600	          1.53229189	          0.03897018	         -0.40713829	          1.58661163	          0.61808854	         -0.20061301	          1.56635475	          0.62268269	         -0.32590860	          1.51996934	          0.67511892	         -0.15169211	          1.49668849	          0.67194098	         -0.38056737	          1.50459421	          0.59009719	         -0.14614728	          1.49257171	          0.58382773	         -0.37776589	          1.40928268	          0.18679667	         -0.06724440	          1.36024749	          0.18521121	         -0.44402534	          1.41411924	          0.19291510	         -0.10873366	          1.38094521	          0.18957487	         -0.40571466	
          0.03333334	          1.52651596	          0.89994115	         -0.27152932	        -10.55463600	         -4.16297865	          6.34444046	          6.82427597	         -1.62683201	          6.91956377	          1.43462312	          2.55829716	          0.00000000	          0.00000000	         10.21989632	         -5.52133131	         13.15877342	         -0.93507975	          1.58613133	          0.00000000	          0.00000000	          1.03552151	         -1.74758196	         -1.58400154	          1.45154035	          0.83483303	         -0.26012468	          1.46407342	          0.83582628	         -0.20275009	          1.43900728	          0.83383983	         -0.31749928	          1.44017518	          0.45922515	         -0.17958327	          1.43137288	          0.46515119	         -0.34336495	          1.42049837	          0.06356324	         -0.17419130	          1.41497266	          0.06598706	         -0.35547641	          1.52651596	          0.89994115	         -0.27152932	          1.53972399	          0.90240961	         -0.17060530	          1.51330781	          0.89747268	         -0.37245336	          1.38142562	          0.96323657	         -0.22877684	          1.37610757	          0.96178412	         -0.28372073	          1.45391428	          0.46162608	         -0.12638107	          1.43686402	          0.46883273	         -0.39746249	          1.42041123	          0.45229715	         -0.23050883	          1.42008555	          0.45206469	         -0.29222238	          1.41016829	          0.06458221	         -0.13711701	          1.40872765	          0.06739555	         -0.39344040	          1.44244266	          0.07659000	         -0.20181647	          1.43874657	          0.07621054	         -0.33315998	          1.37349606	          0.04291285	         -0.16877186	          1.36991882	          0.04792989	         -0.34312236	          1.51563787	          1.29690468	         -0.28963637	          1.58412886	          1.13565195	         -0.28635430	          1.43306673	          1.34748900	         -0.27436802	          1.53682590	          1.29050696	         -0.23088776	          1.52501082	          1.28403795	         -0.34004787	          1.53397429	          0.04106585	         -0.12696007	          1.53226161	          0.03897912	         -0.40713361	          1.58655906	          0.61811841	         -0.20060901	          1.56626475	          0.62270886	         -0.32589805	          1.51991856	          0.67509770	         -0.15164697	          1.49658787	          0.67193639	         -0.38054070	          1.50456715	          0.59010792	         -0.14613476	          1.49254131	          0.58388734	         -0.37778467	          1.40928018	          0.18679290	         -0.06723082	          1.36009145	          0.18517093	         -0.44391653	          1.41413140	          0.19290361	         -0.10870749	          1.38093483	          0.18955973	         -0.40569705	
